# AST/ASF file generated using VICON BodyLanguage
# -----------------------------------------------
:version 1.10
:name VICON
:units
  mass 1.0
  length 0.45
  angle deg
:documentation
   .ast/.asf automatically generated from VICON data using
   VICON BodyBuilder and BodyLanguage model FoxedUp or BRILLIANT.MOD
:root
   order TX TY TZ RX RY RZ
   axis XYZ
   position 0 0 0  
   orientation 0 0 0 
:bonedata
  begin
     id 1 
     name lhipjoint
     direction 0.54267 -0.795011 0.271047 
     length 2.39899 
     axis 0 0 0  XYZ
  end
  begin
     id 2 
     name lfemur
     direction 0.34202 -0.939693 0  
     length 7.49701  
     axis 0 0 20  XYZ
    dof rx ry rz
    limits (-160.0 20.0)
           (-70.0 70.0)
           (-60.0 70.0)
  end
  begin
     id 3 
     name ltibia
     direction 0.34202 -0.939693 0   
     length 8.1668   
     axis 0 0 20   XYZ
    dof rx
    limits (-10.0 170.0)
  end
  begin
     id 4 
     name lfoot
     direction 0.0736283 -0.202292 0.976554   
     length 2.13544   
     axis -90 7.62852e-016 20   XYZ
    dof rx rz
    limits (-45.0 90.0)
           (-70.0 20.0)
  end
  begin
     id 5 
     name ltoes
     direction 1.53557e-011 -4.22024e-011 1   
     length 1.07411   
     axis -90 7.62852e-016 20   XYZ
    dof rx
    limits (-90.0 20.0)
  end
  begin
     id 6 
     name rhipjoint
     direction -0.538061 -0.797813 0.272002   
     length 2.39057  
     axis 0 0 0  XYZ 
  end
  begin
     id 7 
     name rfemur
     direction -0.34202 -0.939693 0   
     length 7.50152   
     axis 0 0 -20   XYZ
    dof rx ry rz
    limits (-160.0 20.0)
           (-70.0 70.0)
           (-70.0 60.0)
  end
  begin
     id 8 
     name rtibia
     direction -0.34202 -0.939693 0   
     length 8.05793   
     axis 0 0 -20   XYZ
    dof rx
    limits (-10.0 170.0)
 end
 begin
     id 9 
     name rfoot
     direction -0.0765195 -0.210236 0.974652   
     length 2.28698  
     axis -90 -7.62852e-016 -20   XYZ
    dof rx rz
    limits (-45.0 90.0)
           (-20.0 70.0)
  end
  begin
     id 10 
     name rtoes
     direction -1.53542e-011 -4.21847e-011 1   
     length 1.14762   
     axis -90 -7.62852e-016 -20   XYZ
    dof rx
    limits (-90.0 20.0)
  end
  begin
     id 11 
     name lowerback
     direction -0.0217239 0.996592 -0.0795765   
     length 2.08176   
     axis 0 0 0   XYZ
    dof rx ry rz
    limits (-20.0 45.0)
           (-30.0 30.0)
           (-30.0 30.0)
  end
  begin
     id 12 
     name upperback
     direction -0.00563773 0.999651 -0.0258155   
     length 2.08898   
     axis 0 0 0   XYZ
    dof rx ry rz
    limits (-20.0 45.0)
           (-30.0 30.0)
           (-30.0 30.0)
  end
  begin
     id 13 
     name thorax
     direction 0.0032706 0.999923 0.0119599   
     length 2.0968   
     axis 0 0 0   XYZ
    dof rx ry rz
    limits (-20.0 45.0)
           (-30.0 30.0)
           (-30.0 30.0)
  end
  begin
     id 14 
     name lowerneck
     direction -0.0285886 0.99568 0.0883427   
     length 1.81272   
     axis 0 0 0   XYZ
    dof rx ry rz
    limits (-20.0 45.0)
           (-30.0 30.0)
           (-30.0 30.0)
  end
  begin
     id 15 
     name upperneck
     direction 0.0807535 0.97985 -0.18268   
     length 1.82518   
     axis 0 0 0   XYZ
    dof rx ry rz
    limits (-20.0 45.0)
           (-30.0 30.0)
           (-30.0 30.0)
  end
  begin
     id 16
     name head
     direction 0.0236605 0.997053 -0.0729767  
     length 1.84443  
     axis 0 0 0   XYZ
    dof rx ry rz
    limits (-20.0 45.0)
           (-30.0 30.0)
           (-30.0 30.0)
  end
  begin
     id 17 
     name lclavicle
     direction 0.918986 0.39378 -0.0200683  
     length 3.27822  
     axis 0 0 0   XYZ
    dof ry rz
    limits (-20.0 10.0)
           (0.0 20.0)
  end
  begin
     id 18 
     name lhumerus
     direction 1 -4.4897e-011 2.09544e-027   
     length 5.5568   
     axis 180 -30 -90   XYZ
    dof rx ry rz
    limits (-60.0 90.0)
           (-90.0 90.0)
           (-90.0 90.0)
  end
  begin
     id 19
     name lradius
     direction 1 -4.48957e-011 -1.27696e-026   
     length 3.63979   
     axis 180 -30 -90   XYZ
    dof rx
    limits (-10.0 170.0)
  end
  begin
     id 20
     name lwrist
     direction 1 -4.49001e-011 -1.49001e-026   
     length 1.8199   
     axis 9.0955e-015 90 90   XYZ
    dof ry
    limits (-180.0 0.0)
 end
  begin
     id 21 
     name lhand
     direction 1 -4.48709e-011 -2.9758e-026   
     length 0.569419   
     axis 1.90115e-014 90 90   XYZ
    dof rx rz
    limits (-90.0 90.0)
           (-45.0 45.0)
  end
  begin
     id 22 
     name lfingers
     direction 1 -4.49175e-011 -5.96505e-026   
     length 0.45908   
     axis 3.80223e-014 90 90   XYZ
    dof rx
    limits (0.0 90.0)
  end
  begin
     id 23
     name lthumb
     direction 0.707107 -6.34864e-011 0.707107   
     length 0.65915   
     axis -90 45 -3.84942e-014   XYZ
    dof rx rz
    limits (-45.0 45.0)
           (-45.0 45.0)
  end
  begin
     id 24 
     name rclavicle
     direction -0.911913 0.396426 -0.106115   
     length 3.46301  
     axis 0 0 0   XYZ 
    dof ry rz
    limits (-10.0 20.0)
           (-20.0 0.0)
  end
  begin
     id 25 
     name rhumerus
     direction -1 -4.48965e-011 7.78516e-028  
     length 5.34339   
     axis 180 30 90   XYZ
    dof rx ry rz
    limits (-90.0 60.0)
           (-90.0 90.0)
           (-90.0 90.0)
  end
  begin
     id 26 
     name rradius
     direction -1 -4.48948e-011 -5.79823e-027   
     length 3.65101   
     axis 180 30 90   XYZ
    dof rx
    limits (-10.0 170.0)
  end
  begin
     id 27 
     name rwrist
     direction -1 -4.48995e-011 -1.48996e-026   
     length 1.8255   
     axis 9.0955e-015 -90 -90   XYZ
    dof ry
    limits (-180.0 0.0)
  end
  begin
     id 28
     name rhand
     direction -1 -4.48957e-011 -2.97937e-026   
     length 0.694249   
     axis 1.90115e-014 -90 -90   XYZ
    dof rx rz
    limits (-90.0 90.0)
           (-45.0 45.0)
  end
  begin
     id 29
     name rfingers
     direction -1 -4.4898e-011 -5.95943e-026   
     length 0.559721   
     axis 3.80223e-014 -90 -90   XYZ
    dof rx
    limits (0.0 90.0)
  end
  begin
     id 30
     name rthumb
     direction -0.707107 -6.34969e-011 0.707107   
     length 0.803651   
     axis -90 -45 3.84942e-014   XYZ
    dof rx rz
    limits (-45.0 45.0)
           (-45.0 45.0)
  end
:hierarchy
  begin
    root lhipjoint rhipjoint lowerback
    lhipjoint lfemur
    lfemur ltibia
    ltibia lfoot
    lfoot ltoes
    rhipjoint rfemur
    rfemur rtibia
    rtibia rfoot
    rfoot rtoes
    lowerback upperback
    upperback thorax
    thorax lowerneck lclavicle rclavicle
    lowerneck upperneck
    upperneck head
    lclavicle lhumerus
    lhumerus lradius
    lradius lwrist
    lwrist lhand lthumb
    lhand lfingers
    rclavicle rhumerus
    rhumerus rradius
    rradius rwrist
    rwrist rhand rthumb
    rhand rfingers
  end

#!OML:ASF H:\Terrain\Walking\May29\JustinRory\rory.ASF
:FULLY-SPECIFIED
:DEGREES
147
root 9.82743 17.9178 -16.31 -1.01477 82.0491 -2.79473
lowerback 0.787032 0.654063 0.474145
upperback 2.38692 0.907429 -0.866015
thorax 2.02595 0.481302 -1.14377
lowerneck -3.59344 -10.0401 -9.84885
upperneck 36.9823 -11.4231 -0.0370009
head 13.8306 -5.83638 0.337138
rclavicle 1.58282e-014 -1.98785e-015
rhumerus -34.5646 32.5982 -67.8293
rradius 35.401
rwrist -8.40663
rhand 14.544 23.5932
rfingers 7.12502
rthumb 39.4222 -1.80458
lclavicle 1.58282e-014 -1.98785e-015
lhumerus -33.3757 13.7749 77.418
lradius 33.5456
lwrist -3.1528
lhand -18.9503 15.89
lfingers 7.12502
lthumb 7.35317 45.7422
rfemur -5.54769 12.5591 12.9085
rtibia 23.5585
rfoot -18.9114 -19.8569
rtoes 14.252
lfemur -16.386 -0.279925 -17.2375
ltibia 38.7564
lfoot -23.9823 -1.29052
ltoes -14.8023
148
root 9.83133 17.9069 -16.3462 4.48907 82.0042 2.81028
lowerback 0.857061 0.68292 -0.0176791
upperback 2.64397 0.95799 -0.984906
thorax 2.24612 0.502144 -0.988615
lowerneck -3.78703 -9.79771 -9.45319
upperneck 37.0753 -10.8041 -0.840563
head 13.7849 -5.60031 0.0381456
rclavicle -2.35311e-014 2.04748e-014
rhumerus -34.1074 33.3647 -66.4952
rradius 36.1946
rwrist -8.86196
rhand 13.1678 23.3595
rfingers 7.12502
rthumb 38.1243 -2.40579
lclavicle -2.35311e-014 2.04748e-014
lhumerus -33.0675 13.5294 77.5604
lradius 34.183
lwrist -3.1727
lhand -18.399 15.8357
lfingers 7.12502
lthumb 7.88527 45.6686
rfemur -5.60682 11.8785 11.8023
rtibia 23.6756
rfoot -18.6236 -19.2949
rtoes 12.7592
lfemur -16.604 0.270805 -18.2317
ltibia 39.1225
lfoot -24.2455 -0.671295
ltoes -11.1153
149
root 9.83817 17.902 -16.3864 7.10533 82.0856 5.44507
lowerback 0.987164 0.714242 0.160992
upperback 2.67549 1.00234 -1.10075
thorax 2.21157 0.530168 -1.20862
lowerneck -3.56496 -9.62698 -9.52141
upperneck 37.346 -10.3421 -1.28379
head 13.8171 -5.44646 -0.0527447
rclavicle -1.44119e-014 6.75868e-015
rhumerus -34.0871 34.3798 -65.3682
rradius 37.022
rwrist -9.68671
rhand 12.0265 23.0085
rfingers 7.12502
rthumb 37.0457 -3.04413
lclavicle -1.44119e-014 6.75868e-015
lhumerus -33.1709 12.9801 77.458
lradius 34.8731
lwrist -3.20617
lhand -18.0184 15.6881
lfingers 7.12502
lthumb 8.25255 45.5069
rfemur -5.65353 10.9725 11.1432
rtibia 23.7744
rfoot -18.6957 -18.4782
rtoes 12.8326
lfemur -16.8908 0.876737 -18.7695
ltibia 39.4301
lfoot -24.3193 0.363278
ltoes -10.5131
150
root 9.84824 17.9007 -16.4283 5.80997 82.1886 4.15297
lowerback 1.01838 0.786362 0.964809
upperback 2.83905 1.09894 -1.10882
thorax 2.38073 0.598537 -1.6657
lowerneck -3.61944 -9.5239 -9.75122
upperneck 37.6721 -10.0384 -1.42602
head 13.9791 -5.34819 -0.0406677
rclavicle 7.85199e-015 -7.55382e-015
rhumerus -33.7557 34.8215 -63.9997
rradius 37.6735
rwrist -10.2251
rhand 10.6704 22.8722
rfingers 7.12502
rthumb 35.7619 -3.50245
lclavicle 7.85199e-015 -7.55382e-015
lhumerus -33.1034 11.9844 77.3657
lradius 35.5675
lwrist -3.1482
lhand -18.3306 15.6039
lfingers 7.12502
lthumb 7.95129 45.4343
rfemur -5.62192 10.6166 11.1852
rtibia 23.8461
rfoot -18.8179 -18.35
rtoes 12.7947
lfemur -17.2049 1.59282 -18.6794
ltibia 39.7337
lfoot -24.3457 1.33682
ltoes -10.9905
151
root 9.85273 17.897 -16.4539 7.01348 82.0981 5.61985
lowerback 1.28017 0.8588 1.09161
upperback 3.06052 1.20262 -1.09039
thorax 2.46807 0.65751 -1.71896
lowerneck -3.50535 -9.30607 -9.65876
upperneck 37.7582 -9.47738 -2.03491
head 13.9241 -5.15273 -0.211623
rclavicle 2.23881e-014 -2.78299e-015
rhumerus -33.3745 35.175 -62.4023
rradius 38.4941
rwrist -11.0595
rhand 9.32945 22.4518
rfingers 7.12502
rthumb 34.4901 -4.22178
lclavicle 2.23881e-014 -2.78299e-015
lhumerus -33.0269 11.5697 77.3033
lradius 36.1312
lwrist -3.14243
lhand -18.352 15.3602
lfingers 7.12502
lthumb 7.93057 45.1914
rfemur -5.28102 11.1607 10.9854
rtibia 23.7919
rfoot -18.7905 -18.9775
rtoes 11.8261
lfemur -17.2691 2.27367 -18.9292
ltibia 40.0582
lfoot -24.472 1.78343
ltoes -9.85116
152
root 9.84802 17.8922 -16.4785 10.8603 82.0214 9.75201
lowerback 1.69163 0.888315 0.886183
upperback 3.18465 1.25219 -1.1945
thorax 2.36459 0.681478 -1.71625
lowerneck -2.91054 -8.95146 -9.34346
upperneck 37.5026 -8.79645 -2.68758
head 13.5869 -4.8787 -0.383631
rclavicle -8.82107e-015 1.26228e-014
rhumerus -33.16 35.5601 -60.8599
rradius 39.4985
rwrist -12.3395
rhand 8.22108 22.0906
rfingers 7.12502
rthumb 33.4372 -4.81636
lclavicle -8.82107e-015 1.26228e-014
lhumerus -33.2237 11.4479 77.0752
lradius 36.8055
lwrist -3.33527
lhand -18.0702 15.0171
lfingers 7.12502
lthumb 8.20258 44.8379
rfemur -4.94735 11.3365 10.3272
rtibia 23.6404
rfoot -18.5845 -19.2199
rtoes 10.8153
lfemur -17.3406 2.76581 -19.5545
ltibia 40.3626
lfoot -24.6955 2.24927
ltoes -8.69661
153
root 9.84483 17.8903 -16.5208 10.2671 82.1107 9.16262
lowerback 1.82328 0.783363 1.58693
upperback 3.39184 1.11809 -1.13056
thorax 2.51282 0.635215 -2.04471
lowerneck -2.67497 -8.55378 -9.2479
upperneck 37.1863 -8.07484 -3.16514
head 13.3354 -4.59789 -0.467646
rclavicle 9.95166e-015 -3.52843e-015
rhumerus -32.3731 36.0138 -59.0725
rradius 40.4649
rwrist -13.3413
rhand 6.93301 22.3048
rfingers 7.12502
rthumb 32.2119 -4.8584
lclavicle 9.95166e-015 -3.52843e-015
lhumerus -33.3271 11.2574 76.7751
lradius 37.5236
lwrist -3.29497
lhand -17.8033 14.6133
lfingers 7.12502
lthumb 8.46013 44.4238
rfemur -4.90085 11.0715 10.2549
rtibia 23.5088
rfoot -18.5644 -18.9957
rtoes 11.026
lfemur -17.6659 3.09339 -19.5105
ltibia 40.6038
lfoot -24.7926 2.94122
ltoes -8.25948
154
root 9.85381 17.8889 -16.5671 7.73522 82.064 6.62409
lowerback 1.76918 0.673616 2.59042
upperback 3.67883 0.972306 -0.956539
thorax 2.8496 0.595511 -2.42693
lowerneck -2.88211 -8.17807 -9.40782
upperneck 37.2272 -7.26317 -3.68433
head 13.3635 -4.31539 -0.550634
rclavicle 1.27533e-014 -1.98785e-016
rhumerus -31.4177 36.8517 -57.2697
rradius 41.4052
rwrist -14.3117
rhand 5.13956 22.4067
rfingers 7.12502
rthumb 30.5031 -5.08828
lclavicle 1.27533e-014 -1.98785e-016
lhumerus -33.3393 11.168 76.4925
lradius 38.0508
lwrist -3.14657
lhand -17.7819 14.2491
lfingers 7.12502
lthumb 8.48081 44.0588
rfemur -4.79824 11.0525 10.4456
rtibia 23.3372
rfoot -18.7359 -18.7104
rtoes 12.0448
lfemur -17.8967 3.35592 -19.2555
ltibia 40.7686
lfoot -24.8763 3.81299
ltoes -9.17405
155
root 9.86639 17.8774 -16.6034 6.75995 81.9634 5.78344
lowerback 1.92838 0.657628 3.29736
upperback 3.87176 0.956368 -0.828849
thorax 2.9714 0.612395 -2.6931
lowerneck -2.89096 -7.874 -9.71969
upperneck 37.3856 -6.56849 -4.06799
head 13.4291 -4.08373 -0.565814
rclavicle -2.73329e-015 6.55989e-015
rhumerus -30.7761 37.4066 -55.477
rradius 42.2521
rwrist -15.3933
rhand 3.66826 22.6648
rfingers 7.12502
rthumb 29.0989 -5.08191
lclavicle -2.73329e-015 6.55989e-015
lhumerus -33.5444 11.0651 76.2128
lradius 38.5625
lwrist -3.50849
lhand -17.6715 14.1232
lfingers 7.12502
lthumb 8.58738 43.9285
rfemur -4.46122 11.2426 10.4651
rtibia 23.0322
rfoot -18.6147 -18.6213
rtoes 12.2214
lfemur -17.957 3.7436 -19.1883
ltibia 40.8621
lfoot -24.9197 3.98924
ltoes -9.41341
156
root 9.87361 17.8658 -16.6391 5.77907 81.956 4.942
lowerback 2.27534 0.713909 4.03743
upperback 4.07687 1.04896 -0.743807
thorax 3.01174 0.686521 -3.02349
lowerneck -3.03539 -7.76991 -9.82199
upperneck 37.5309 -6.19478 -4.45888
head 13.513 -3.97011 -0.665169
rclavicle -1.00635e-014 8.54774e-015
rhumerus -30.1505 36.8569 -53.4752
rradius 43.0963
rwrist -16.0811
rhand 2.48151 23.0768
rfingers 7.12502
rthumb 27.965 -4.8603
lclavicle -1.00635e-014 8.54774e-015
lhumerus -33.5491 10.4658 75.9776
lradius 39.047
lwrist -3.76048
lhand -17.2393 13.8602
lfingers 7.12502
lthumb 9.00444 43.648
rfemur -4.12542 11.6692 10.5502
rtibia 22.7531
rfoot -18.4988 -18.8016
rtoes 12.4889
lfemur -18.0106 4.08878 -19.0538
ltibia 40.8105
lfoot -25.0085 3.30493
ltoes -5.95583
157
root 9.88203 17.8688 -16.6725 5.0434 81.8642 4.26713
lowerback 2.44509 0.873747 4.74365
upperback 4.35784 1.27658 -0.71312
thorax 3.24782 0.836438 -3.38675
lowerneck -3.32528 -7.8209 -9.49631
upperneck 37.693 -5.96748 -5.24281
head 13.5983 -3.91171 -1.01607
rclavicle -2.90226e-014 4.96962e-015
rhumerus -29.4856 35.8503 -51.5439
rradius 43.8389
rwrist -16.7598
rhand 1.16981 22.8707
rfingers 7.12502
rthumb 26.7104 -5.26421
lclavicle -2.90226e-014 4.96962e-015
lhumerus -33.3683 9.76864 75.7374
lradius 39.3995
lwrist -3.92135
lhand -17.1624 13.3543
lfingers 7.12502
lthumb 9.07866 43.139
rfemur -3.98729 12.2759 10.6112
rtibia 22.6412
rfoot -18.5989 -19.1081
rtoes 13.174
lfemur -18.0618 4.26661 -18.9247
ltibia 40.5529
lfoot -25.0186 2.7324
ltoes -3.36806
158
root 9.89502 17.8673 -16.6992 5.48315 81.8029 4.64175
lowerback 2.3472 0.844909 5.07339
upperback 4.50616 1.23112 -0.565217
thorax 3.45949 0.831737 -3.41546
lowerneck -3.16656 -7.63874 -9.7684
upperneck 37.7659 -5.3784 -5.88256
head 13.5947 -3.74851 -1.14554
rclavicle -1.09332e-015 -1.55052e-014
rhumerus -28.3969 35.6597 -49.4966
rradius 44.3513
rwrist -17.7175
rhand 0.68548 22.6229
rfingers 7.12502
rthumb 26.2468 -5.58188
lclavicle -1.09332e-015 -1.55052e-014
lhumerus -33.7021 10.4025 75.2819
lradius 39.5448
lwrist -4.65192
lhand -17.7763 12.8678
lfingers 7.12502
lthumb 8.48623 42.6773
rfemur -4.01414 12.2834 10.4266
rtibia 22.5588
rfoot -18.7452 -18.8602
rtoes 13.9028
lfemur -18.1869 4.40415 -18.941
ltibia 40.1103
lfoot -24.6498 2.32397
ltoes -5.22284
159
root 9.90861 17.8559 -16.7254 8.56425 81.9273 7.63669
lowerback 2.25854 0.687856 5.07716
upperback 4.56266 1.01569 -0.532661
thorax 3.54664 0.727537 -3.38426
lowerneck -2.81379 -7.36954 -10.2817
upperneck 37.7546 -4.7968 -6.12868
head 13.5403 -3.57226 -1.0705
rclavicle -1.83876e-014 1.98785e-015
rhumerus -27.3241 35.4379 -47.5557
rradius 44.786
rwrist -18.0544
rhand 0.805128 22.8193
rfingers 7.12502
rthumb 26.3613 -5.3684
lclavicle -1.83876e-014 1.98785e-015
lhumerus -33.7727 10.3141 74.6511
lradius 39.4744
lwrist -4.56729
lhand -17.9988 12.9495
lfingers 7.12502
lthumb 8.27152 42.7676
rfemur -4.02437 11.8275 9.80292
rtibia 22.5037
rfoot -18.8936 -18.3085
rtoes 14.6491
lfemur -18.2834 4.4628 -19.3556
ltibia 39.4297
lfoot -24.0355 1.97548
ltoes -9.0667
